<svg xmlns="http://www.w3.org/2000/svg" width="450" height="240" viewBox="0 0 450 240"><path d="M14 135 Q77 141 138 105 C167 63 221 46 277 56 L319 69 C336 53 351 47 354 75 L383 52 L374 87 L421 93 L400 107 L426 108 L416 127 L369 140 L336 144 C302 162 256 169 210 157 L168 147 Q84 158 14 135 Z" fill="#10110f" stroke="#b7a68a" stroke-width="1.6"/><path d="M187 140L203 143L200.0 205L212.0 217L186.0 219L177.0 205Z" fill="#10110f" stroke="#b7a68a" stroke-width="1"/><path d="M226 140L242 143L239.0 205L251.0 217L225.0 219L216.0 205Z" fill="#10110f" stroke="#b7a68a" stroke-width="1"/><path d="M298 140L314 143L311.0 205L323.0 217L297.0 219L288.0 205Z" fill="#10110f" stroke="#b7a68a" stroke-width="1"/><path d="M337 140L353 143L350.0 205L362.0 217L336.0 219L327.0 205Z" fill="#10110f" stroke="#b7a68a" stroke-width="1"/><path d="M347 88L363 30L369 87M369 99L417 64L386 108M404 101L432 86L413 110" fill="#b7a68a"/><path d="M324 70Q348 99 335 138M153 110Q225 79 302 93M325 82l-7 13 6 9-6 12 9 13M161 116Q191 156 254 144" fill="none" stroke="#b7a68a" stroke-width="2"/><circle cx="377" cy="112" r="2.6" fill="#e9e4d8"/><path d="M180 112l-8 20m10-8l-6 13" stroke="#b7a68a" stroke-width=".8" opacity=".28"/><path d="M189 112l-8 20m10-8l-6 13" stroke="#b7a68a" stroke-width=".8" opacity=".28"/><path d="M198 112l-8 20m10-8l-6 13" stroke="#b7a68a" stroke-width=".8" opacity=".28"/><path d="M207 112l-8 20m10-8l-6 13" stroke="#b7a68a" stroke-width=".8" opacity=".28"/><path d="M216 112l-8 20m10-8l-6 13" stroke="#b7a68a" stroke-width=".8" opacity=".28"/><path d="M225 112l-8 20m10-8l-6 13" stroke="#b7a68a" stroke-width=".8" opacity=".28"/><path d="M234 112l-8 20m10-8l-6 13" stroke="#b7a68a" stroke-width=".8" opacity=".28"/><path d="M243 112l-8 20m10-8l-6 13" stroke="#b7a68a" stroke-width=".8" opacity=".28"/><path d="M252 112l-8 20m10-8l-6 13" stroke="#b7a68a" stroke-width=".8" opacity=".28"/><path d="M261 112l-8 20m10-8l-6 13" stroke="#b7a68a" stroke-width=".8" opacity=".28"/><path d="M270 112l-8 20m10-8l-6 13" stroke="#b7a68a" stroke-width=".8" opacity=".28"/><path d="M279 112l-8 20m10-8l-6 13" stroke="#b7a68a" stroke-width=".8" opacity=".28"/><path d="M288 112l-8 20m10-8l-6 13" stroke="#b7a68a" stroke-width=".8" opacity=".28"/><path d="M297 112l-8 20m10-8l-6 13" stroke="#b7a68a" stroke-width=".8" opacity=".28"/><path d="M306 112l-8 20m10-8l-6 13" stroke="#b7a68a" stroke-width=".8" opacity=".28"/><path d="M14 135 Q77 141 138 105 C167 63 221 46 277 56 L319 69 C336 53 351 47 354 75 L383 52 L374 87 L421 93 L400 107 L426 108 L416 127 L369 140 L336 144 C302 162 256 169 210 157 L168 147 Q84 158 14 135 Z" fill="none" stroke="#e9e4d8" stroke-width=".9" opacity=".52"/></svg>